<mxfile host="Electron" agent="Mozilla/5.0 (Windows NT 10.0; Win64; x64) AppleWebKit/537.36 (KHTML, like Gecko) draw.io/26.2.2 Chrome/134.0.6998.178 Electron/35.1.2 Safari/537.36" version="26.2.2">
  <diagram name="Página-1" id="6O1KKREfVq3B-GbUaAFD">
    <mxGraphModel dx="1871" dy="1795" grid="1" gridSize="10" guides="1" tooltips="1" connect="1" arrows="1" fold="1" page="1" pageScale="1" pageWidth="827" pageHeight="1169" math="0" shadow="0">
      <root>
        <mxCell id="0" />
        <mxCell id="1" parent="0" />
        <mxCell id="ejgy_zcAvgptHarT8cZN-1" value="Pais" style="whiteSpace=wrap;html=1;align=center;" parent="1" vertex="1">
          <mxGeometry x="-580" y="250" width="100" height="40" as="geometry" />
        </mxCell>
        <mxCell id="ejgy_zcAvgptHarT8cZN-3" value="CodPais" style="ellipse;whiteSpace=wrap;html=1;align=center;fontStyle=4;" parent="1" vertex="1">
          <mxGeometry x="-660" y="180" width="100" height="40" as="geometry" />
        </mxCell>
        <mxCell id="ejgy_zcAvgptHarT8cZN-4" value="NombrePais" style="ellipse;whiteSpace=wrap;html=1;align=center;" parent="1" vertex="1">
          <mxGeometry x="-510" y="180" width="100" height="40" as="geometry" />
        </mxCell>
        <mxCell id="ejgy_zcAvgptHarT8cZN-6" value="" style="endArrow=none;html=1;rounded=0;entryX=0.356;entryY=0.025;entryDx=0;entryDy=0;entryPerimeter=0;" parent="1" source="ejgy_zcAvgptHarT8cZN-3" target="ejgy_zcAvgptHarT8cZN-1" edge="1">
          <mxGeometry relative="1" as="geometry">
            <mxPoint x="-300" y="420" as="sourcePoint" />
            <mxPoint x="-140" y="420" as="targetPoint" />
          </mxGeometry>
        </mxCell>
        <mxCell id="ejgy_zcAvgptHarT8cZN-8" value="" style="endArrow=none;html=1;rounded=0;exitX=0.348;exitY=0.965;exitDx=0;exitDy=0;exitPerimeter=0;entryX=0.628;entryY=-0.015;entryDx=0;entryDy=0;entryPerimeter=0;" parent="1" source="ejgy_zcAvgptHarT8cZN-4" target="ejgy_zcAvgptHarT8cZN-1" edge="1">
          <mxGeometry relative="1" as="geometry">
            <mxPoint x="-300" y="420" as="sourcePoint" />
            <mxPoint x="-140" y="420" as="targetPoint" />
          </mxGeometry>
        </mxCell>
        <mxCell id="ejgy_zcAvgptHarT8cZN-9" value="Provincia" style="whiteSpace=wrap;html=1;align=center;" parent="1" vertex="1">
          <mxGeometry x="-580" y="480" width="100" height="40" as="geometry" />
        </mxCell>
        <mxCell id="ejgy_zcAvgptHarT8cZN-10" value="Tiene" style="shape=rhombus;perimeter=rhombusPerimeter;whiteSpace=wrap;html=1;align=center;" parent="1" vertex="1">
          <mxGeometry x="-590" y="350" width="120" height="60" as="geometry" />
        </mxCell>
        <mxCell id="ejgy_zcAvgptHarT8cZN-11" value="" style="endArrow=none;html=1;rounded=0;" parent="1" source="ejgy_zcAvgptHarT8cZN-10" target="ejgy_zcAvgptHarT8cZN-1" edge="1">
          <mxGeometry relative="1" as="geometry">
            <mxPoint x="-300" y="420" as="sourcePoint" />
            <mxPoint x="-140" y="420" as="targetPoint" />
          </mxGeometry>
        </mxCell>
        <mxCell id="ejgy_zcAvgptHarT8cZN-12" value="1" style="resizable=0;html=1;whiteSpace=wrap;align=right;verticalAlign=bottom;" parent="ejgy_zcAvgptHarT8cZN-11" connectable="0" vertex="1">
          <mxGeometry x="1" relative="1" as="geometry">
            <mxPoint y="60" as="offset" />
          </mxGeometry>
        </mxCell>
        <mxCell id="ejgy_zcAvgptHarT8cZN-13" value="" style="endArrow=none;html=1;rounded=0;entryX=0.5;entryY=1;entryDx=0;entryDy=0;exitX=0.5;exitY=0;exitDx=0;exitDy=0;" parent="1" source="ejgy_zcAvgptHarT8cZN-9" target="ejgy_zcAvgptHarT8cZN-10" edge="1">
          <mxGeometry relative="1" as="geometry">
            <mxPoint x="-300" y="420" as="sourcePoint" />
            <mxPoint x="-140" y="420" as="targetPoint" />
          </mxGeometry>
        </mxCell>
        <mxCell id="ejgy_zcAvgptHarT8cZN-14" value="N" style="resizable=0;html=1;whiteSpace=wrap;align=right;verticalAlign=bottom;" parent="ejgy_zcAvgptHarT8cZN-13" connectable="0" vertex="1">
          <mxGeometry x="1" relative="1" as="geometry">
            <mxPoint y="20" as="offset" />
          </mxGeometry>
        </mxCell>
        <mxCell id="ejgy_zcAvgptHarT8cZN-15" value="CodProvincia" style="ellipse;whiteSpace=wrap;html=1;align=center;fontStyle=4;" parent="1" vertex="1">
          <mxGeometry x="-670" y="555" width="100" height="40" as="geometry" />
        </mxCell>
        <mxCell id="ejgy_zcAvgptHarT8cZN-16" value="NombreProvincia" style="ellipse;whiteSpace=wrap;html=1;align=center;" parent="1" vertex="1">
          <mxGeometry x="-540" y="560" width="100" height="40" as="geometry" />
        </mxCell>
        <mxCell id="ejgy_zcAvgptHarT8cZN-17" value="" style="endArrow=none;html=1;rounded=0;entryX=0.5;entryY=0;entryDx=0;entryDy=0;" parent="1" source="ejgy_zcAvgptHarT8cZN-9" target="ejgy_zcAvgptHarT8cZN-15" edge="1">
          <mxGeometry relative="1" as="geometry">
            <mxPoint x="-300" y="420" as="sourcePoint" />
            <mxPoint x="-140" y="420" as="targetPoint" />
          </mxGeometry>
        </mxCell>
        <mxCell id="ejgy_zcAvgptHarT8cZN-18" value="" style="endArrow=none;html=1;rounded=0;exitX=0.7;exitY=0;exitDx=0;exitDy=0;exitPerimeter=0;" parent="1" source="ejgy_zcAvgptHarT8cZN-16" target="ejgy_zcAvgptHarT8cZN-9" edge="1">
          <mxGeometry relative="1" as="geometry">
            <mxPoint x="-300" y="420" as="sourcePoint" />
            <mxPoint x="-140" y="420" as="targetPoint" />
          </mxGeometry>
        </mxCell>
        <mxCell id="ejgy_zcAvgptHarT8cZN-19" value="Hubicado En" style="shape=rhombus;perimeter=rhombusPerimeter;whiteSpace=wrap;html=1;align=center;" parent="1" vertex="1">
          <mxGeometry x="-430" y="350" width="120" height="60" as="geometry" />
        </mxCell>
        <mxCell id="ejgy_zcAvgptHarT8cZN-21" value="" style="endArrow=none;html=1;rounded=0;entryX=0.342;entryY=0.833;entryDx=0;entryDy=0;exitX=0.9;exitY=0;exitDx=0;exitDy=0;exitPerimeter=0;entryPerimeter=0;" parent="1" source="ejgy_zcAvgptHarT8cZN-9" target="ejgy_zcAvgptHarT8cZN-19" edge="1">
          <mxGeometry relative="1" as="geometry">
            <mxPoint x="-300" y="420" as="sourcePoint" />
            <mxPoint x="-140" y="420" as="targetPoint" />
          </mxGeometry>
        </mxCell>
        <mxCell id="ejgy_zcAvgptHarT8cZN-22" value="1" style="resizable=0;html=1;whiteSpace=wrap;align=right;verticalAlign=bottom;" parent="ejgy_zcAvgptHarT8cZN-21" connectable="0" vertex="1">
          <mxGeometry x="1" relative="1" as="geometry">
            <mxPoint x="-10" y="10" as="offset" />
          </mxGeometry>
        </mxCell>
        <mxCell id="ejgy_zcAvgptHarT8cZN-23" value="Operador" style="whiteSpace=wrap;html=1;align=center;" parent="1" vertex="1">
          <mxGeometry x="-330" y="250" width="100" height="40" as="geometry" />
        </mxCell>
        <mxCell id="ejgy_zcAvgptHarT8cZN-25" value="" style="endArrow=none;html=1;rounded=0;entryX=0.682;entryY=0.18;entryDx=0;entryDy=0;exitX=0.5;exitY=1;exitDx=0;exitDy=0;entryPerimeter=0;" parent="1" source="ejgy_zcAvgptHarT8cZN-23" target="ejgy_zcAvgptHarT8cZN-19" edge="1">
          <mxGeometry relative="1" as="geometry">
            <mxPoint x="-300" y="420" as="sourcePoint" />
            <mxPoint x="-140" y="420" as="targetPoint" />
          </mxGeometry>
        </mxCell>
        <mxCell id="ejgy_zcAvgptHarT8cZN-26" value="N" style="resizable=0;html=1;whiteSpace=wrap;align=right;verticalAlign=bottom;" parent="ejgy_zcAvgptHarT8cZN-25" connectable="0" vertex="1">
          <mxGeometry x="1" relative="1" as="geometry" />
        </mxCell>
        <mxCell id="ejgy_zcAvgptHarT8cZN-28" value="Domicilio" style="ellipse;whiteSpace=wrap;html=1;align=center;" parent="1" vertex="1">
          <mxGeometry x="-340" y="170" width="100" height="40" as="geometry" />
        </mxCell>
        <mxCell id="ejgy_zcAvgptHarT8cZN-29" value="" style="endArrow=none;html=1;rounded=0;" parent="1" source="ejgy_zcAvgptHarT8cZN-28" target="ejgy_zcAvgptHarT8cZN-23" edge="1">
          <mxGeometry relative="1" as="geometry">
            <mxPoint x="-300" y="420" as="sourcePoint" />
            <mxPoint x="-140" y="420" as="targetPoint" />
          </mxGeometry>
        </mxCell>
        <mxCell id="ejgy_zcAvgptHarT8cZN-30" value="Teléfono" style="ellipse;whiteSpace=wrap;html=1;align=center;" parent="1" vertex="1">
          <mxGeometry x="-230" y="170" width="100" height="40" as="geometry" />
        </mxCell>
        <mxCell id="ejgy_zcAvgptHarT8cZN-31" value="" style="endArrow=none;html=1;rounded=0;entryX=0.75;entryY=0;entryDx=0;entryDy=0;" parent="1" source="ejgy_zcAvgptHarT8cZN-30" target="ejgy_zcAvgptHarT8cZN-23" edge="1">
          <mxGeometry relative="1" as="geometry">
            <mxPoint x="-300" y="420" as="sourcePoint" />
            <mxPoint x="-140" y="420" as="targetPoint" />
          </mxGeometry>
        </mxCell>
        <mxCell id="ejgy_zcAvgptHarT8cZN-33" value="Email" style="ellipse;whiteSpace=wrap;html=1;align=center;fontStyle=4;" parent="1" vertex="1">
          <mxGeometry x="-440" y="220" width="100" height="40" as="geometry" />
        </mxCell>
        <mxCell id="ejgy_zcAvgptHarT8cZN-34" value="" style="endArrow=none;html=1;rounded=0;exitX=1;exitY=1;exitDx=0;exitDy=0;entryX=0;entryY=0.5;entryDx=0;entryDy=0;" parent="1" source="ejgy_zcAvgptHarT8cZN-33" target="ejgy_zcAvgptHarT8cZN-23" edge="1">
          <mxGeometry relative="1" as="geometry">
            <mxPoint x="-300" y="420" as="sourcePoint" />
            <mxPoint x="-140" y="420" as="targetPoint" />
          </mxGeometry>
        </mxCell>
        <mxCell id="ejgy_zcAvgptHarT8cZN-35" value="Paquete" style="whiteSpace=wrap;html=1;align=center;" parent="1" vertex="1">
          <mxGeometry x="10" y="250" width="100" height="40" as="geometry" />
        </mxCell>
        <mxCell id="ejgy_zcAvgptHarT8cZN-36" value="Provee" style="shape=rhombus;perimeter=rhombusPerimeter;whiteSpace=wrap;html=1;align=center;" parent="1" vertex="1">
          <mxGeometry x="-160" y="240" width="120" height="60" as="geometry" />
        </mxCell>
        <mxCell id="ejgy_zcAvgptHarT8cZN-38" value="" style="endArrow=none;html=1;rounded=0;entryX=0;entryY=0.5;entryDx=0;entryDy=0;" parent="1" source="ejgy_zcAvgptHarT8cZN-23" target="ejgy_zcAvgptHarT8cZN-36" edge="1">
          <mxGeometry relative="1" as="geometry">
            <mxPoint x="-300" y="420" as="sourcePoint" />
            <mxPoint x="-170" y="260" as="targetPoint" />
          </mxGeometry>
        </mxCell>
        <mxCell id="ejgy_zcAvgptHarT8cZN-39" value="1" style="resizable=0;html=1;whiteSpace=wrap;align=right;verticalAlign=bottom;" parent="ejgy_zcAvgptHarT8cZN-38" connectable="0" vertex="1">
          <mxGeometry x="1" relative="1" as="geometry">
            <mxPoint x="-10" as="offset" />
          </mxGeometry>
        </mxCell>
        <mxCell id="ejgy_zcAvgptHarT8cZN-42" value="" style="endArrow=none;html=1;rounded=0;entryX=1;entryY=0.5;entryDx=0;entryDy=0;exitX=0;exitY=0.5;exitDx=0;exitDy=0;" parent="1" source="ejgy_zcAvgptHarT8cZN-35" target="ejgy_zcAvgptHarT8cZN-36" edge="1">
          <mxGeometry relative="1" as="geometry">
            <mxPoint x="-300" y="420" as="sourcePoint" />
            <mxPoint x="-140" y="420" as="targetPoint" />
          </mxGeometry>
        </mxCell>
        <mxCell id="ejgy_zcAvgptHarT8cZN-43" value="N" style="resizable=0;html=1;whiteSpace=wrap;align=right;verticalAlign=bottom;" parent="ejgy_zcAvgptHarT8cZN-42" connectable="0" vertex="1">
          <mxGeometry x="1" relative="1" as="geometry">
            <mxPoint x="10" as="offset" />
          </mxGeometry>
        </mxCell>
        <mxCell id="ejgy_zcAvgptHarT8cZN-47" value="" style="endArrow=none;html=1;rounded=0;entryX=0;entryY=0.5;entryDx=0;entryDy=0;exitX=1;exitY=0.5;exitDx=0;exitDy=0;" parent="1" source="ejgy_zcAvgptHarT8cZN-35" target="ghniVI8SRtHAH0aED-Tp-4" edge="1">
          <mxGeometry relative="1" as="geometry">
            <mxPoint x="-90" y="420" as="sourcePoint" />
            <mxPoint x="180" y="270" as="targetPoint" />
          </mxGeometry>
        </mxCell>
        <mxCell id="ejgy_zcAvgptHarT8cZN-48" value="1" style="resizable=0;html=1;whiteSpace=wrap;align=right;verticalAlign=bottom;" parent="ejgy_zcAvgptHarT8cZN-47" connectable="0" vertex="1">
          <mxGeometry x="1" relative="1" as="geometry" />
        </mxCell>
        <mxCell id="ejgy_zcAvgptHarT8cZN-51" value="Contingente" style="whiteSpace=wrap;html=1;align=center;" parent="1" vertex="1">
          <mxGeometry x="-190" y="520" width="100" height="40" as="geometry" />
        </mxCell>
        <mxCell id="ejgy_zcAvgptHarT8cZN-56" value="Costo" style="ellipse;whiteSpace=wrap;html=1;align=center;dashed=1;" parent="1" vertex="1">
          <mxGeometry x="125" y="180" width="100" height="40" as="geometry" />
        </mxCell>
        <mxCell id="ejgy_zcAvgptHarT8cZN-57" value="Codigo" style="ellipse;whiteSpace=wrap;html=1;align=center;fontStyle=4;" parent="1" vertex="1">
          <mxGeometry x="35" y="140" width="90" height="40" as="geometry" />
        </mxCell>
        <mxCell id="ejgy_zcAvgptHarT8cZN-59" value="" style="endArrow=none;html=1;rounded=0;entryX=0.5;entryY=0;entryDx=0;entryDy=0;" parent="1" source="ejgy_zcAvgptHarT8cZN-57" target="ejgy_zcAvgptHarT8cZN-35" edge="1">
          <mxGeometry relative="1" as="geometry">
            <mxPoint x="-90" y="420" as="sourcePoint" />
            <mxPoint x="70" y="420" as="targetPoint" />
          </mxGeometry>
        </mxCell>
        <mxCell id="ejgy_zcAvgptHarT8cZN-60" value="" style="endArrow=none;html=1;rounded=0;exitX=0.252;exitY=0.935;exitDx=0;exitDy=0;entryX=0.75;entryY=0;entryDx=0;entryDy=0;exitPerimeter=0;" parent="1" source="ejgy_zcAvgptHarT8cZN-56" target="ejgy_zcAvgptHarT8cZN-35" edge="1">
          <mxGeometry relative="1" as="geometry">
            <mxPoint x="-90" y="420" as="sourcePoint" />
            <mxPoint x="70" y="420" as="targetPoint" />
          </mxGeometry>
        </mxCell>
        <mxCell id="ejgy_zcAvgptHarT8cZN-65" value="Cupo&lt;span style=&quot;background-color: transparent; color: light-dark(rgb(0, 0, 0), rgb(255, 255, 255));&quot;&gt;Max&lt;/span&gt;" style="ellipse;whiteSpace=wrap;html=1;align=center;" parent="1" vertex="1">
          <mxGeometry x="-65" y="450" width="100" height="40" as="geometry" />
        </mxCell>
        <mxCell id="ejgy_zcAvgptHarT8cZN-66" value="CodContingente" style="ellipse;whiteSpace=wrap;html=1;align=center;fontStyle=4;" parent="1" vertex="1">
          <mxGeometry x="-190" y="420" width="130" height="40" as="geometry" />
        </mxCell>
        <mxCell id="ejgy_zcAvgptHarT8cZN-67" value="" style="endArrow=none;html=1;rounded=0;exitX=0.5;exitY=1;exitDx=0;exitDy=0;" parent="1" source="ejgy_zcAvgptHarT8cZN-66" target="ejgy_zcAvgptHarT8cZN-51" edge="1">
          <mxGeometry relative="1" as="geometry">
            <mxPoint x="-90" y="420" as="sourcePoint" />
            <mxPoint x="70" y="420" as="targetPoint" />
          </mxGeometry>
        </mxCell>
        <mxCell id="ejgy_zcAvgptHarT8cZN-68" value="" style="endArrow=none;html=1;rounded=0;exitX=0.5;exitY=1;exitDx=0;exitDy=0;entryX=1;entryY=0;entryDx=0;entryDy=0;" parent="1" source="ejgy_zcAvgptHarT8cZN-65" target="ejgy_zcAvgptHarT8cZN-51" edge="1">
          <mxGeometry relative="1" as="geometry">
            <mxPoint x="-90" y="420" as="sourcePoint" />
            <mxPoint x="70" y="420" as="targetPoint" />
          </mxGeometry>
        </mxCell>
        <mxCell id="ejgy_zcAvgptHarT8cZN-71" value="Duración" style="ellipse;whiteSpace=wrap;html=1;align=center;" parent="1" vertex="1">
          <mxGeometry x="-300" y="410" width="100" height="40" as="geometry" />
        </mxCell>
        <mxCell id="ejgy_zcAvgptHarT8cZN-72" value="" style="endArrow=none;html=1;rounded=0;entryX=0;entryY=0.25;entryDx=0;entryDy=0;" parent="1" source="ejgy_zcAvgptHarT8cZN-71" target="ejgy_zcAvgptHarT8cZN-51" edge="1">
          <mxGeometry relative="1" as="geometry">
            <mxPoint x="-90" y="420" as="sourcePoint" />
            <mxPoint x="70" y="420" as="targetPoint" />
          </mxGeometry>
        </mxCell>
        <mxCell id="ejgy_zcAvgptHarT8cZN-73" value="Conforman Los" style="shape=rhombus;perimeter=rhombusPerimeter;whiteSpace=wrap;html=1;align=center;" parent="1" vertex="1">
          <mxGeometry y="510" width="120" height="60" as="geometry" />
        </mxCell>
        <mxCell id="ejgy_zcAvgptHarT8cZN-74" value="" style="endArrow=none;html=1;rounded=0;entryX=0.5;entryY=0;entryDx=0;entryDy=0;exitX=0.5;exitY=1;exitDx=0;exitDy=0;" parent="1" source="ejgy_zcAvgptHarT8cZN-35" target="ejgy_zcAvgptHarT8cZN-73" edge="1">
          <mxGeometry relative="1" as="geometry">
            <mxPoint x="-140" y="420" as="sourcePoint" />
            <mxPoint x="20" y="420" as="targetPoint" />
          </mxGeometry>
        </mxCell>
        <mxCell id="ejgy_zcAvgptHarT8cZN-75" value="1" style="resizable=0;html=1;whiteSpace=wrap;align=right;verticalAlign=bottom;" parent="ejgy_zcAvgptHarT8cZN-74" connectable="0" vertex="1">
          <mxGeometry x="1" relative="1" as="geometry" />
        </mxCell>
        <mxCell id="ejgy_zcAvgptHarT8cZN-78" value="" style="endArrow=none;html=1;rounded=0;entryX=0;entryY=0.5;entryDx=0;entryDy=0;exitX=1;exitY=0.5;exitDx=0;exitDy=0;" parent="1" source="ejgy_zcAvgptHarT8cZN-51" target="ejgy_zcAvgptHarT8cZN-73" edge="1">
          <mxGeometry relative="1" as="geometry">
            <mxPoint x="-140" y="420" as="sourcePoint" />
            <mxPoint x="20" y="420" as="targetPoint" />
          </mxGeometry>
        </mxCell>
        <mxCell id="ejgy_zcAvgptHarT8cZN-79" value="N" style="resizable=0;html=1;whiteSpace=wrap;align=right;verticalAlign=bottom;" parent="ejgy_zcAvgptHarT8cZN-78" connectable="0" vertex="1">
          <mxGeometry x="1" relative="1" as="geometry" />
        </mxCell>
        <mxCell id="ejgy_zcAvgptHarT8cZN-82" value="Psaporte" style="ellipse;whiteSpace=wrap;html=1;align=center;fontStyle=4;" parent="1" vertex="1">
          <mxGeometry x="-285" y="1070" width="100" height="40" as="geometry" />
        </mxCell>
        <mxCell id="ejgy_zcAvgptHarT8cZN-83" value="Nombre" style="ellipse;whiteSpace=wrap;html=1;align=center;" parent="1" vertex="1">
          <mxGeometry x="-350" y="980" width="100" height="40" as="geometry" />
        </mxCell>
        <mxCell id="ejgy_zcAvgptHarT8cZN-84" value="" style="endArrow=none;html=1;rounded=0;entryX=0.112;entryY=1.06;entryDx=0;entryDy=0;entryPerimeter=0;" parent="1" source="ejgy_zcAvgptHarT8cZN-82" target="InJDaDbi0Jno1Hsyv-po-46" edge="1">
          <mxGeometry relative="1" as="geometry">
            <mxPoint x="-80" y="640" as="sourcePoint" />
            <mxPoint x="-159.5999999999999" y="1020.2" as="targetPoint" />
          </mxGeometry>
        </mxCell>
        <mxCell id="ejgy_zcAvgptHarT8cZN-85" value="" style="endArrow=none;html=1;rounded=0;exitX=1;exitY=0.5;exitDx=0;exitDy=0;entryX=0;entryY=0.5;entryDx=0;entryDy=0;" parent="1" source="ejgy_zcAvgptHarT8cZN-83" target="InJDaDbi0Jno1Hsyv-po-46" edge="1">
          <mxGeometry relative="1" as="geometry">
            <mxPoint x="-80" y="640" as="sourcePoint" />
            <mxPoint x="-175" y="1000" as="targetPoint" />
          </mxGeometry>
        </mxCell>
        <mxCell id="ejgy_zcAvgptHarT8cZN-87" value="" style="endArrow=none;html=1;rounded=0;entryX=0.5;entryY=0;entryDx=0;entryDy=0;exitX=0.75;exitY=1;exitDx=0;exitDy=0;" parent="1" source="ejgy_zcAvgptHarT8cZN-51" target="InJDaDbi0Jno1Hsyv-po-47" edge="1">
          <mxGeometry relative="1" as="geometry">
            <mxPoint x="-80" y="640" as="sourcePoint" />
            <mxPoint x="-115" y="720" as="targetPoint" />
          </mxGeometry>
        </mxCell>
        <mxCell id="ejgy_zcAvgptHarT8cZN-88" value="1" style="resizable=0;html=1;whiteSpace=wrap;align=right;verticalAlign=bottom;" parent="ejgy_zcAvgptHarT8cZN-87" connectable="0" vertex="1">
          <mxGeometry x="1" relative="1" as="geometry" />
        </mxCell>
        <mxCell id="ejgy_zcAvgptHarT8cZN-89" value="" style="endArrow=none;html=1;rounded=0;entryX=0.5;entryY=1;entryDx=0;entryDy=0;exitX=0.5;exitY=0;exitDx=0;exitDy=0;" parent="1" source="InJDaDbi0Jno1Hsyv-po-46" target="InJDaDbi0Jno1Hsyv-po-47" edge="1">
          <mxGeometry relative="1" as="geometry">
            <mxPoint x="-113.79999999999995" y="984" as="sourcePoint" />
            <mxPoint x="-115" y="780" as="targetPoint" />
          </mxGeometry>
        </mxCell>
        <mxCell id="ejgy_zcAvgptHarT8cZN-90" value="N" style="resizable=0;html=1;whiteSpace=wrap;align=right;verticalAlign=bottom;" parent="ejgy_zcAvgptHarT8cZN-89" connectable="0" vertex="1">
          <mxGeometry x="1" relative="1" as="geometry">
            <mxPoint y="20" as="offset" />
          </mxGeometry>
        </mxCell>
        <mxCell id="ejgy_zcAvgptHarT8cZN-91" value="Es Titular" style="shape=rhombus;perimeter=rhombusPerimeter;whiteSpace=wrap;html=1;align=center;" parent="1" vertex="1">
          <mxGeometry x="-20" y="970" width="120" height="60" as="geometry" />
        </mxCell>
        <mxCell id="ejgy_zcAvgptHarT8cZN-93" value="" style="endArrow=none;html=1;rounded=0;entryX=0;entryY=0.5;entryDx=0;entryDy=0;exitX=1;exitY=0.5;exitDx=0;exitDy=0;" parent="1" source="InJDaDbi0Jno1Hsyv-po-46" target="ejgy_zcAvgptHarT8cZN-91" edge="1">
          <mxGeometry relative="1" as="geometry">
            <mxPoint x="-75" y="1000" as="sourcePoint" />
            <mxPoint x="90" y="540" as="targetPoint" />
          </mxGeometry>
        </mxCell>
        <mxCell id="ejgy_zcAvgptHarT8cZN-94" value="1" style="resizable=0;html=1;whiteSpace=wrap;align=right;verticalAlign=bottom;" parent="ejgy_zcAvgptHarT8cZN-93" connectable="0" vertex="1">
          <mxGeometry x="1" relative="1" as="geometry" />
        </mxCell>
        <mxCell id="ejgy_zcAvgptHarT8cZN-95" value="" style="endArrow=none;html=1;rounded=0;entryX=0.5;entryY=1;entryDx=0;entryDy=0;exitX=0.896;exitY=1.04;exitDx=0;exitDy=0;exitPerimeter=0;" parent="1" source="InJDaDbi0Jno1Hsyv-po-46" target="ejgy_zcAvgptHarT8cZN-91" edge="1">
          <mxGeometry relative="1" as="geometry">
            <mxPoint x="-75" y="1020" as="sourcePoint" />
            <mxPoint x="120" y="700" as="targetPoint" />
          </mxGeometry>
        </mxCell>
        <mxCell id="ejgy_zcAvgptHarT8cZN-96" value="N" style="resizable=0;html=1;whiteSpace=wrap;align=right;verticalAlign=bottom;" parent="ejgy_zcAvgptHarT8cZN-95" connectable="0" vertex="1">
          <mxGeometry x="1" relative="1" as="geometry">
            <mxPoint x="-15" y="20" as="offset" />
          </mxGeometry>
        </mxCell>
        <mxCell id="ejgy_zcAvgptHarT8cZN-97" value="Item" style="shape=ext;margin=3;double=1;whiteSpace=wrap;html=1;align=center;" parent="1" vertex="1">
          <mxGeometry x="380" y="440" width="100" height="40" as="geometry" />
        </mxCell>
        <mxCell id="ejgy_zcAvgptHarT8cZN-104" value="Pertenece A" style="shape=rhombus;double=1;perimeter=rhombusPerimeter;whiteSpace=wrap;html=1;align=center;" parent="1" vertex="1">
          <mxGeometry x="370" y="555" width="120" height="60" as="geometry" />
        </mxCell>
        <mxCell id="ejgy_zcAvgptHarT8cZN-105" value="" style="endArrow=none;html=1;rounded=0;entryX=0.5;entryY=0;entryDx=0;entryDy=0;" parent="1" source="ejgy_zcAvgptHarT8cZN-97" target="ejgy_zcAvgptHarT8cZN-104" edge="1">
          <mxGeometry relative="1" as="geometry">
            <mxPoint x="-40" y="410" as="sourcePoint" />
            <mxPoint x="120" y="410" as="targetPoint" />
          </mxGeometry>
        </mxCell>
        <mxCell id="ejgy_zcAvgptHarT8cZN-106" value="N" style="resizable=0;html=1;whiteSpace=wrap;align=right;verticalAlign=bottom;" parent="ejgy_zcAvgptHarT8cZN-105" connectable="0" vertex="1">
          <mxGeometry x="1" relative="1" as="geometry" />
        </mxCell>
        <mxCell id="ejgy_zcAvgptHarT8cZN-107" value="Factura" style="whiteSpace=wrap;html=1;align=center;" parent="1" vertex="1">
          <mxGeometry x="380" y="740" width="100" height="40" as="geometry" />
        </mxCell>
        <mxCell id="ejgy_zcAvgptHarT8cZN-108" value="" style="endArrow=none;html=1;rounded=0;entryX=0.5;entryY=1;entryDx=0;entryDy=0;" parent="1" source="ejgy_zcAvgptHarT8cZN-107" target="ejgy_zcAvgptHarT8cZN-104" edge="1">
          <mxGeometry relative="1" as="geometry">
            <mxPoint x="-40" y="580" as="sourcePoint" />
            <mxPoint x="120" y="580" as="targetPoint" />
          </mxGeometry>
        </mxCell>
        <mxCell id="ejgy_zcAvgptHarT8cZN-109" value="1" style="resizable=0;html=1;whiteSpace=wrap;align=right;verticalAlign=bottom;" parent="ejgy_zcAvgptHarT8cZN-108" connectable="0" vertex="1">
          <mxGeometry x="1" relative="1" as="geometry">
            <mxPoint y="20" as="offset" />
          </mxGeometry>
        </mxCell>
        <mxCell id="ejgy_zcAvgptHarT8cZN-110" value="Nro" style="ellipse;whiteSpace=wrap;html=1;align=center;fontStyle=4;" parent="1" vertex="1">
          <mxGeometry x="500" y="440" width="100" height="40" as="geometry" />
        </mxCell>
        <mxCell id="ejgy_zcAvgptHarT8cZN-111" value="" style="endArrow=none;html=1;rounded=0;entryX=0;entryY=0.5;entryDx=0;entryDy=0;exitX=1;exitY=0.5;exitDx=0;exitDy=0;" parent="1" source="ejgy_zcAvgptHarT8cZN-97" target="ejgy_zcAvgptHarT8cZN-110" edge="1">
          <mxGeometry relative="1" as="geometry">
            <mxPoint x="-40" y="580" as="sourcePoint" />
            <mxPoint x="120" y="580" as="targetPoint" />
          </mxGeometry>
        </mxCell>
        <mxCell id="ejgy_zcAvgptHarT8cZN-112" value="Emitida A" style="shape=rhombus;perimeter=rhombusPerimeter;whiteSpace=wrap;html=1;align=center;" parent="1" vertex="1">
          <mxGeometry x="110" y="840" width="120" height="60" as="geometry" />
        </mxCell>
        <mxCell id="ejgy_zcAvgptHarT8cZN-114" value="" style="endArrow=none;html=1;rounded=0;entryX=0;entryY=0.5;entryDx=0;entryDy=0;" parent="1" target="ejgy_zcAvgptHarT8cZN-112" edge="1">
          <mxGeometry relative="1" as="geometry">
            <mxPoint x="-88.84615384615381" y="980" as="sourcePoint" />
            <mxPoint x="120" y="580" as="targetPoint" />
          </mxGeometry>
        </mxCell>
        <mxCell id="ejgy_zcAvgptHarT8cZN-115" value="1" style="resizable=0;html=1;whiteSpace=wrap;align=right;verticalAlign=bottom;" parent="ejgy_zcAvgptHarT8cZN-114" connectable="0" vertex="1">
          <mxGeometry x="1" relative="1" as="geometry">
            <mxPoint x="-10" y="10" as="offset" />
          </mxGeometry>
        </mxCell>
        <mxCell id="ejgy_zcAvgptHarT8cZN-117" value="" style="endArrow=none;html=1;rounded=0;exitX=1;exitY=0.5;exitDx=0;exitDy=0;entryX=0;entryY=0.5;entryDx=0;entryDy=0;" parent="1" source="ejgy_zcAvgptHarT8cZN-112" target="ejgy_zcAvgptHarT8cZN-107" edge="1">
          <mxGeometry relative="1" as="geometry">
            <mxPoint x="40" y="700" as="sourcePoint" />
            <mxPoint x="130" y="590" as="targetPoint" />
          </mxGeometry>
        </mxCell>
        <mxCell id="ejgy_zcAvgptHarT8cZN-118" value="N" style="resizable=0;html=1;whiteSpace=wrap;align=right;verticalAlign=bottom;" parent="ejgy_zcAvgptHarT8cZN-117" connectable="0" vertex="1">
          <mxGeometry x="1" relative="1" as="geometry">
            <mxPoint x="-140" y="100" as="offset" />
          </mxGeometry>
        </mxCell>
        <mxCell id="ejgy_zcAvgptHarT8cZN-119" value="Codigo" style="ellipse;whiteSpace=wrap;html=1;align=center;fontStyle=4;" parent="1" vertex="1">
          <mxGeometry x="310" y="660" width="100" height="40" as="geometry" />
        </mxCell>
        <mxCell id="ejgy_zcAvgptHarT8cZN-121" value="F.Vencimiento" style="ellipse;whiteSpace=wrap;html=1;align=center;" parent="1" vertex="1">
          <mxGeometry x="520" y="740" width="100" height="40" as="geometry" />
        </mxCell>
        <mxCell id="ejgy_zcAvgptHarT8cZN-122" value="" style="endArrow=none;html=1;rounded=0;exitX=0.5;exitY=1;exitDx=0;exitDy=0;" parent="1" source="ejgy_zcAvgptHarT8cZN-119" target="ejgy_zcAvgptHarT8cZN-107" edge="1">
          <mxGeometry relative="1" as="geometry">
            <mxPoint x="-40" y="580" as="sourcePoint" />
            <mxPoint x="120" y="580" as="targetPoint" />
          </mxGeometry>
        </mxCell>
        <mxCell id="ejgy_zcAvgptHarT8cZN-123" value="" style="endArrow=none;html=1;rounded=0;entryX=1;entryY=0.5;entryDx=0;entryDy=0;" parent="1" source="ejgy_zcAvgptHarT8cZN-121" target="ejgy_zcAvgptHarT8cZN-107" edge="1">
          <mxGeometry relative="1" as="geometry">
            <mxPoint x="-40" y="580" as="sourcePoint" />
            <mxPoint x="120" y="580" as="targetPoint" />
          </mxGeometry>
        </mxCell>
        <mxCell id="ejgy_zcAvgptHarT8cZN-124" value="FormaPago" style="whiteSpace=wrap;html=1;align=center;" parent="1" vertex="1">
          <mxGeometry x="390" y="980" width="100" height="40" as="geometry" />
        </mxCell>
        <mxCell id="ejgy_zcAvgptHarT8cZN-125" value="Es Abonada&amp;nbsp;" style="shape=rhombus;perimeter=rhombusPerimeter;whiteSpace=wrap;html=1;align=center;" parent="1" vertex="1">
          <mxGeometry x="380" y="840" width="120" height="60" as="geometry" />
        </mxCell>
        <mxCell id="ejgy_zcAvgptHarT8cZN-127" value="" style="endArrow=none;html=1;rounded=0;entryX=0.5;entryY=1;entryDx=0;entryDy=0;" parent="1" source="ejgy_zcAvgptHarT8cZN-124" target="ejgy_zcAvgptHarT8cZN-125" edge="1">
          <mxGeometry relative="1" as="geometry">
            <mxPoint x="-40" y="580" as="sourcePoint" />
            <mxPoint x="120" y="580" as="targetPoint" />
          </mxGeometry>
        </mxCell>
        <mxCell id="ejgy_zcAvgptHarT8cZN-128" value="1" style="resizable=0;html=1;whiteSpace=wrap;align=right;verticalAlign=bottom;" parent="ejgy_zcAvgptHarT8cZN-127" connectable="0" vertex="1">
          <mxGeometry x="1" relative="1" as="geometry">
            <mxPoint x="10" y="15" as="offset" />
          </mxGeometry>
        </mxCell>
        <mxCell id="ejgy_zcAvgptHarT8cZN-129" value="" style="endArrow=none;html=1;rounded=0;entryX=0.5;entryY=0;entryDx=0;entryDy=0;exitX=0.57;exitY=0.95;exitDx=0;exitDy=0;exitPerimeter=0;" parent="1" source="ejgy_zcAvgptHarT8cZN-107" target="ejgy_zcAvgptHarT8cZN-125" edge="1">
          <mxGeometry relative="1" as="geometry">
            <mxPoint x="-40" y="580" as="sourcePoint" />
            <mxPoint x="120" y="580" as="targetPoint" />
          </mxGeometry>
        </mxCell>
        <mxCell id="ejgy_zcAvgptHarT8cZN-130" value="N" style="resizable=0;html=1;whiteSpace=wrap;align=right;verticalAlign=bottom;" parent="ejgy_zcAvgptHarT8cZN-129" connectable="0" vertex="1">
          <mxGeometry x="1" relative="1" as="geometry" />
        </mxCell>
        <mxCell id="ejgy_zcAvgptHarT8cZN-131" value="Descripción" style="ellipse;whiteSpace=wrap;html=1;align=center;" parent="1" vertex="1">
          <mxGeometry x="460" y="1080" width="100" height="40" as="geometry" />
        </mxCell>
        <mxCell id="ejgy_zcAvgptHarT8cZN-132" value="ID" style="ellipse;whiteSpace=wrap;html=1;align=center;fontStyle=4;" parent="1" vertex="1">
          <mxGeometry x="314" y="1070" width="100" height="40" as="geometry" />
        </mxCell>
        <mxCell id="ejgy_zcAvgptHarT8cZN-133" style="edgeStyle=orthogonalEdgeStyle;rounded=0;orthogonalLoop=1;jettySize=auto;html=1;exitX=0.5;exitY=1;exitDx=0;exitDy=0;" parent="1" source="ejgy_zcAvgptHarT8cZN-131" target="ejgy_zcAvgptHarT8cZN-131" edge="1">
          <mxGeometry relative="1" as="geometry" />
        </mxCell>
        <mxCell id="ejgy_zcAvgptHarT8cZN-134" value="" style="endArrow=none;html=1;rounded=0;entryX=0.5;entryY=1;entryDx=0;entryDy=0;" parent="1" source="ejgy_zcAvgptHarT8cZN-132" target="ejgy_zcAvgptHarT8cZN-124" edge="1">
          <mxGeometry relative="1" as="geometry">
            <mxPoint x="-40" y="750" as="sourcePoint" />
            <mxPoint x="120" y="750" as="targetPoint" />
          </mxGeometry>
        </mxCell>
        <mxCell id="ejgy_zcAvgptHarT8cZN-135" value="" style="endArrow=none;html=1;rounded=0;entryX=0.574;entryY=1.015;entryDx=0;entryDy=0;entryPerimeter=0;exitX=0.434;exitY=0.095;exitDx=0;exitDy=0;exitPerimeter=0;" parent="1" source="ejgy_zcAvgptHarT8cZN-131" target="ejgy_zcAvgptHarT8cZN-124" edge="1">
          <mxGeometry relative="1" as="geometry">
            <mxPoint x="-40" y="750" as="sourcePoint" />
            <mxPoint x="120" y="750" as="targetPoint" />
          </mxGeometry>
        </mxCell>
        <mxCell id="ejgy_zcAvgptHarT8cZN-136" value="Guia" style="whiteSpace=wrap;html=1;align=center;" parent="1" vertex="1">
          <mxGeometry x="-530" y="720" width="100" height="40" as="geometry" />
        </mxCell>
        <mxCell id="ejgy_zcAvgptHarT8cZN-137" value="Es Guiado Por" style="shape=rhombus;perimeter=rhombusPerimeter;whiteSpace=wrap;html=1;align=center;" parent="1" vertex="1">
          <mxGeometry x="-360" y="620" width="120" height="60" as="geometry" />
        </mxCell>
        <mxCell id="ejgy_zcAvgptHarT8cZN-138" value="" style="endArrow=none;html=1;rounded=0;entryX=0;entryY=0.5;entryDx=0;entryDy=0;exitX=0.5;exitY=0;exitDx=0;exitDy=0;" parent="1" source="ejgy_zcAvgptHarT8cZN-136" target="ejgy_zcAvgptHarT8cZN-137" edge="1">
          <mxGeometry relative="1" as="geometry">
            <mxPoint x="-40" y="630" as="sourcePoint" />
            <mxPoint x="120" y="630" as="targetPoint" />
          </mxGeometry>
        </mxCell>
        <mxCell id="ejgy_zcAvgptHarT8cZN-139" value="1" style="resizable=0;html=1;whiteSpace=wrap;align=right;verticalAlign=bottom;" parent="ejgy_zcAvgptHarT8cZN-138" connectable="0" vertex="1">
          <mxGeometry x="1" relative="1" as="geometry">
            <mxPoint x="-20" y="10" as="offset" />
          </mxGeometry>
        </mxCell>
        <mxCell id="ejgy_zcAvgptHarT8cZN-140" value="" style="endArrow=none;html=1;rounded=0;entryX=1;entryY=0.5;entryDx=0;entryDy=0;exitX=0.25;exitY=1;exitDx=0;exitDy=0;" parent="1" source="ejgy_zcAvgptHarT8cZN-51" target="ejgy_zcAvgptHarT8cZN-137" edge="1">
          <mxGeometry relative="1" as="geometry">
            <mxPoint x="-40" y="630" as="sourcePoint" />
            <mxPoint x="120" y="630" as="targetPoint" />
          </mxGeometry>
        </mxCell>
        <mxCell id="ejgy_zcAvgptHarT8cZN-141" value="N" style="resizable=0;html=1;whiteSpace=wrap;align=right;verticalAlign=bottom;" parent="ejgy_zcAvgptHarT8cZN-140" connectable="0" vertex="1">
          <mxGeometry x="1" relative="1" as="geometry">
            <mxPoint x="10" y="-10" as="offset" />
          </mxGeometry>
        </mxCell>
        <mxCell id="ejgy_zcAvgptHarT8cZN-142" value="Legajo" style="ellipse;whiteSpace=wrap;html=1;align=center;fontStyle=4;" parent="1" vertex="1">
          <mxGeometry x="-610" y="820" width="100" height="40" as="geometry" />
        </mxCell>
        <mxCell id="ejgy_zcAvgptHarT8cZN-143" value="Nombre" style="ellipse;whiteSpace=wrap;html=1;align=center;" parent="1" vertex="1">
          <mxGeometry x="-470" y="820" width="100" height="40" as="geometry" />
        </mxCell>
        <mxCell id="ejgy_zcAvgptHarT8cZN-144" value="" style="endArrow=none;html=1;rounded=0;exitX=0.37;exitY=1.005;exitDx=0;exitDy=0;exitPerimeter=0;" parent="1" source="ejgy_zcAvgptHarT8cZN-136" target="ejgy_zcAvgptHarT8cZN-142" edge="1">
          <mxGeometry relative="1" as="geometry">
            <mxPoint x="-40" y="660" as="sourcePoint" />
            <mxPoint x="120" y="660" as="targetPoint" />
          </mxGeometry>
        </mxCell>
        <mxCell id="ejgy_zcAvgptHarT8cZN-145" value="" style="endArrow=none;html=1;rounded=0;exitX=0.5;exitY=1;exitDx=0;exitDy=0;" parent="1" source="ejgy_zcAvgptHarT8cZN-136" target="ejgy_zcAvgptHarT8cZN-143" edge="1">
          <mxGeometry relative="1" as="geometry">
            <mxPoint x="-40" y="660" as="sourcePoint" />
            <mxPoint x="120" y="660" as="targetPoint" />
          </mxGeometry>
        </mxCell>
        <mxCell id="ghniVI8SRtHAH0aED-Tp-1" value="Servicio" style="whiteSpace=wrap;html=1;align=center;" parent="1" vertex="1">
          <mxGeometry x="380" y="250" width="100" height="40" as="geometry" />
        </mxCell>
        <mxCell id="ghniVI8SRtHAH0aED-Tp-2" value="" style="endArrow=none;html=1;rounded=0;entryX=1;entryY=0.5;entryDx=0;entryDy=0;exitX=0;exitY=0.5;exitDx=0;exitDy=0;" parent="1" source="ghniVI8SRtHAH0aED-Tp-1" target="ghniVI8SRtHAH0aED-Tp-4" edge="1">
          <mxGeometry relative="1" as="geometry">
            <mxPoint x="130" y="470" as="sourcePoint" />
            <mxPoint x="300" y="270" as="targetPoint" />
          </mxGeometry>
        </mxCell>
        <mxCell id="ghniVI8SRtHAH0aED-Tp-3" value="1" style="resizable=0;html=1;whiteSpace=wrap;align=right;verticalAlign=bottom;" parent="ghniVI8SRtHAH0aED-Tp-2" connectable="0" vertex="1">
          <mxGeometry x="1" relative="1" as="geometry" />
        </mxCell>
        <mxCell id="ghniVI8SRtHAH0aED-Tp-4" value="Incluye" style="shape=rhombus;perimeter=rhombusPerimeter;whiteSpace=wrap;html=1;align=center;" parent="1" vertex="1">
          <mxGeometry x="180" y="240" width="120" height="60" as="geometry" />
        </mxCell>
        <mxCell id="ghniVI8SRtHAH0aED-Tp-7" value="Codigo" style="ellipse;whiteSpace=wrap;html=1;align=center;fontStyle=4;" parent="1" vertex="1">
          <mxGeometry x="280" y="160" width="100" height="40" as="geometry" />
        </mxCell>
        <mxCell id="ghniVI8SRtHAH0aED-Tp-8" value="Descripción" style="ellipse;whiteSpace=wrap;html=1;align=center;" parent="1" vertex="1">
          <mxGeometry x="400" y="160" width="100" height="40" as="geometry" />
        </mxCell>
        <mxCell id="ghniVI8SRtHAH0aED-Tp-9" value="" style="endArrow=none;html=1;rounded=0;exitX=0.5;exitY=1;exitDx=0;exitDy=0;" parent="1" source="ghniVI8SRtHAH0aED-Tp-7" target="ghniVI8SRtHAH0aED-Tp-1" edge="1">
          <mxGeometry relative="1" as="geometry">
            <mxPoint x="130" y="470" as="sourcePoint" />
            <mxPoint x="290" y="470" as="targetPoint" />
          </mxGeometry>
        </mxCell>
        <mxCell id="ghniVI8SRtHAH0aED-Tp-10" value="" style="endArrow=none;html=1;rounded=0;exitX=0.5;exitY=1;exitDx=0;exitDy=0;entryX=0.57;entryY=0.03;entryDx=0;entryDy=0;entryPerimeter=0;" parent="1" source="ghniVI8SRtHAH0aED-Tp-8" target="ghniVI8SRtHAH0aED-Tp-1" edge="1">
          <mxGeometry relative="1" as="geometry">
            <mxPoint x="130" y="470" as="sourcePoint" />
            <mxPoint x="290" y="470" as="targetPoint" />
          </mxGeometry>
        </mxCell>
        <mxCell id="ghniVI8SRtHAH0aED-Tp-11" value="Transporte" style="whiteSpace=wrap;html=1;align=center;" parent="1" vertex="1">
          <mxGeometry x="770" y="490" width="100" height="40" as="geometry" />
        </mxCell>
        <mxCell id="ghniVI8SRtHAH0aED-Tp-12" value="A través de" style="shape=rhombus;perimeter=rhombusPerimeter;whiteSpace=wrap;html=1;align=center;" parent="1" vertex="1">
          <mxGeometry x="590" y="380" width="120" height="60" as="geometry" />
        </mxCell>
        <mxCell id="ghniVI8SRtHAH0aED-Tp-14" value="" style="endArrow=none;html=1;rounded=0;entryX=1;entryY=0.5;entryDx=0;entryDy=0;exitX=0;exitY=0.5;exitDx=0;exitDy=0;" parent="1" source="ghniVI8SRtHAH0aED-Tp-11" target="ghniVI8SRtHAH0aED-Tp-12" edge="1">
          <mxGeometry relative="1" as="geometry">
            <mxPoint x="1060" y="60" as="sourcePoint" />
            <mxPoint x="1220" y="60" as="targetPoint" />
          </mxGeometry>
        </mxCell>
        <mxCell id="ghniVI8SRtHAH0aED-Tp-15" value="1" style="resizable=0;html=1;whiteSpace=wrap;align=right;verticalAlign=bottom;" parent="ghniVI8SRtHAH0aED-Tp-14" connectable="0" vertex="1">
          <mxGeometry x="1" relative="1" as="geometry" />
        </mxCell>
        <mxCell id="ghniVI8SRtHAH0aED-Tp-16" value="" style="endArrow=none;html=1;rounded=0;entryX=0;entryY=0.5;entryDx=0;entryDy=0;exitX=1;exitY=0.75;exitDx=0;exitDy=0;" parent="1" source="ghniVI8SRtHAH0aED-Tp-1" target="ghniVI8SRtHAH0aED-Tp-12" edge="1">
          <mxGeometry relative="1" as="geometry">
            <mxPoint x="1060" y="60" as="sourcePoint" />
            <mxPoint x="1220" y="60" as="targetPoint" />
          </mxGeometry>
        </mxCell>
        <mxCell id="ghniVI8SRtHAH0aED-Tp-17" value="N" style="resizable=0;html=1;whiteSpace=wrap;align=right;verticalAlign=bottom;" parent="ghniVI8SRtHAH0aED-Tp-16" connectable="0" vertex="1">
          <mxGeometry x="1" relative="1" as="geometry">
            <mxPoint x="-11" y="15" as="offset" />
          </mxGeometry>
        </mxCell>
        <mxCell id="ghniVI8SRtHAH0aED-Tp-18" value="Hotel" style="whiteSpace=wrap;html=1;align=center;" parent="1" vertex="1">
          <mxGeometry x="670" y="30" width="100" height="40" as="geometry" />
        </mxCell>
        <mxCell id="ghniVI8SRtHAH0aED-Tp-19" value="Comida" style="whiteSpace=wrap;html=1;align=center;" parent="1" vertex="1">
          <mxGeometry x="780" y="280" width="100" height="40" as="geometry" />
        </mxCell>
        <mxCell id="ghniVI8SRtHAH0aED-Tp-20" value="Establece" style="shape=rhombus;perimeter=rhombusPerimeter;whiteSpace=wrap;html=1;align=center;" parent="1" vertex="1">
          <mxGeometry x="370" y="330" width="120" height="60" as="geometry" />
        </mxCell>
        <mxCell id="ghniVI8SRtHAH0aED-Tp-22" value="" style="endArrow=none;html=1;rounded=0;entryX=0.5;entryY=0;entryDx=0;entryDy=0;exitX=0.5;exitY=1;exitDx=0;exitDy=0;" parent="1" source="ghniVI8SRtHAH0aED-Tp-1" target="ghniVI8SRtHAH0aED-Tp-20" edge="1">
          <mxGeometry relative="1" as="geometry">
            <mxPoint x="430" y="200" as="sourcePoint" />
            <mxPoint x="590" y="200" as="targetPoint" />
          </mxGeometry>
        </mxCell>
        <mxCell id="ghniVI8SRtHAH0aED-Tp-23" value="1" style="resizable=0;html=1;whiteSpace=wrap;align=right;verticalAlign=bottom;" parent="ghniVI8SRtHAH0aED-Tp-22" connectable="0" vertex="1">
          <mxGeometry x="1" relative="1" as="geometry" />
        </mxCell>
        <mxCell id="ghniVI8SRtHAH0aED-Tp-24" value="" style="endArrow=none;html=1;rounded=0;entryX=0.5;entryY=1;entryDx=0;entryDy=0;" parent="1" source="InJDaDbi0Jno1Hsyv-po-28" target="ghniVI8SRtHAH0aED-Tp-20" edge="1">
          <mxGeometry relative="1" as="geometry">
            <mxPoint x="430" y="200" as="sourcePoint" />
            <mxPoint x="590" y="200" as="targetPoint" />
          </mxGeometry>
        </mxCell>
        <mxCell id="ghniVI8SRtHAH0aED-Tp-28" style="edgeStyle=orthogonalEdgeStyle;rounded=0;orthogonalLoop=1;jettySize=auto;html=1;exitX=0.5;exitY=1;exitDx=0;exitDy=0;" parent="1" source="ghniVI8SRtHAH0aED-Tp-18" target="ghniVI8SRtHAH0aED-Tp-18" edge="1">
          <mxGeometry relative="1" as="geometry" />
        </mxCell>
        <mxCell id="InJDaDbi0Jno1Hsyv-po-1" value="Codigo" style="ellipse;whiteSpace=wrap;html=1;align=center;fontStyle=4;" parent="1" vertex="1">
          <mxGeometry x="750" y="390" width="100" height="40" as="geometry" />
        </mxCell>
        <mxCell id="InJDaDbi0Jno1Hsyv-po-3" value="Descripcion" style="ellipse;whiteSpace=wrap;html=1;align=center;" parent="1" vertex="1">
          <mxGeometry x="860" y="410" width="100" height="40" as="geometry" />
        </mxCell>
        <mxCell id="InJDaDbi0Jno1Hsyv-po-4" value="Precio" style="ellipse;whiteSpace=wrap;html=1;align=center;" parent="1" vertex="1">
          <mxGeometry x="920" y="470" width="100" height="40" as="geometry" />
        </mxCell>
        <mxCell id="InJDaDbi0Jno1Hsyv-po-5" value="" style="endArrow=none;html=1;rounded=0;exitX=0.646;exitY=1.03;exitDx=0;exitDy=0;exitPerimeter=0;" parent="1" source="InJDaDbi0Jno1Hsyv-po-1" target="ghniVI8SRtHAH0aED-Tp-11" edge="1">
          <mxGeometry relative="1" as="geometry">
            <mxPoint x="640" y="130" as="sourcePoint" />
            <mxPoint x="800" y="130" as="targetPoint" />
          </mxGeometry>
        </mxCell>
        <mxCell id="InJDaDbi0Jno1Hsyv-po-6" value="" style="endArrow=none;html=1;rounded=0;exitX=0.5;exitY=1;exitDx=0;exitDy=0;entryX=0.65;entryY=0.07;entryDx=0;entryDy=0;entryPerimeter=0;" parent="1" source="InJDaDbi0Jno1Hsyv-po-3" target="ghniVI8SRtHAH0aED-Tp-11" edge="1">
          <mxGeometry relative="1" as="geometry">
            <mxPoint x="640" y="130" as="sourcePoint" />
            <mxPoint x="800" y="130" as="targetPoint" />
          </mxGeometry>
        </mxCell>
        <mxCell id="InJDaDbi0Jno1Hsyv-po-7" value="" style="endArrow=none;html=1;rounded=0;exitX=0;exitY=1;exitDx=0;exitDy=0;entryX=1;entryY=0.5;entryDx=0;entryDy=0;" parent="1" source="InJDaDbi0Jno1Hsyv-po-4" target="ghniVI8SRtHAH0aED-Tp-11" edge="1">
          <mxGeometry relative="1" as="geometry">
            <mxPoint x="640" y="130" as="sourcePoint" />
            <mxPoint x="800" y="130" as="targetPoint" />
          </mxGeometry>
        </mxCell>
        <mxCell id="InJDaDbi0Jno1Hsyv-po-9" value="Se aloja en" style="shape=rhombus;perimeter=rhombusPerimeter;whiteSpace=wrap;html=1;align=center;" parent="1" vertex="1">
          <mxGeometry x="560" y="150" width="120" height="60" as="geometry" />
        </mxCell>
        <mxCell id="InJDaDbi0Jno1Hsyv-po-12" value="" style="endArrow=none;html=1;rounded=0;entryX=1;entryY=0.5;entryDx=0;entryDy=0;exitX=0.574;exitY=1.07;exitDx=0;exitDy=0;exitPerimeter=0;" parent="1" source="ghniVI8SRtHAH0aED-Tp-18" target="InJDaDbi0Jno1Hsyv-po-9" edge="1">
          <mxGeometry relative="1" as="geometry">
            <mxPoint x="640" y="130" as="sourcePoint" />
            <mxPoint x="800" y="130" as="targetPoint" />
          </mxGeometry>
        </mxCell>
        <mxCell id="InJDaDbi0Jno1Hsyv-po-13" value="1" style="resizable=0;html=1;whiteSpace=wrap;align=right;verticalAlign=bottom;" parent="InJDaDbi0Jno1Hsyv-po-12" connectable="0" vertex="1">
          <mxGeometry x="1" relative="1" as="geometry" />
        </mxCell>
        <mxCell id="InJDaDbi0Jno1Hsyv-po-14" value="" style="endArrow=none;html=1;rounded=0;exitX=1;exitY=0.5;exitDx=0;exitDy=0;entryX=0;entryY=0.5;entryDx=0;entryDy=0;" parent="1" source="ghniVI8SRtHAH0aED-Tp-1" target="InJDaDbi0Jno1Hsyv-po-9" edge="1">
          <mxGeometry relative="1" as="geometry">
            <mxPoint x="640" y="130" as="sourcePoint" />
            <mxPoint x="800" y="130" as="targetPoint" />
          </mxGeometry>
        </mxCell>
        <mxCell id="InJDaDbi0Jno1Hsyv-po-15" value="N" style="resizable=0;html=1;whiteSpace=wrap;align=right;verticalAlign=bottom;" parent="InJDaDbi0Jno1Hsyv-po-14" connectable="0" vertex="1">
          <mxGeometry x="1" relative="1" as="geometry" />
        </mxCell>
        <mxCell id="InJDaDbi0Jno1Hsyv-po-16" value="PrecioPorDia" style="ellipse;whiteSpace=wrap;html=1;align=center;" parent="1" vertex="1">
          <mxGeometry x="650" y="-60" width="100" height="40" as="geometry" />
        </mxCell>
        <mxCell id="InJDaDbi0Jno1Hsyv-po-17" value="Nombre" style="ellipse;whiteSpace=wrap;html=1;align=center;" parent="1" vertex="1">
          <mxGeometry x="540" y="-60" width="100" height="40" as="geometry" />
        </mxCell>
        <mxCell id="InJDaDbi0Jno1Hsyv-po-18" value="Pertenece a" style="shape=rhombus;perimeter=rhombusPerimeter;whiteSpace=wrap;html=1;align=center;" parent="1" vertex="1">
          <mxGeometry x="-590" y="20" width="120" height="60" as="geometry" />
        </mxCell>
        <mxCell id="InJDaDbi0Jno1Hsyv-po-19" value="" style="endArrow=none;html=1;rounded=0;entryX=0.5;entryY=1;entryDx=0;entryDy=0;exitX=0.5;exitY=0;exitDx=0;exitDy=0;" parent="1" source="ejgy_zcAvgptHarT8cZN-1" target="InJDaDbi0Jno1Hsyv-po-18" edge="1">
          <mxGeometry relative="1" as="geometry">
            <mxPoint x="-210" y="130" as="sourcePoint" />
            <mxPoint x="-50" y="130" as="targetPoint" />
          </mxGeometry>
        </mxCell>
        <mxCell id="InJDaDbi0Jno1Hsyv-po-20" value="1" style="resizable=0;html=1;whiteSpace=wrap;align=right;verticalAlign=bottom;" parent="InJDaDbi0Jno1Hsyv-po-19" connectable="0" vertex="1">
          <mxGeometry x="1" relative="1" as="geometry">
            <mxPoint y="20" as="offset" />
          </mxGeometry>
        </mxCell>
        <mxCell id="InJDaDbi0Jno1Hsyv-po-21" value="" style="endArrow=none;html=1;rounded=0;entryX=1;entryY=0.5;entryDx=0;entryDy=0;exitX=0;exitY=0.5;exitDx=0;exitDy=0;" parent="1" source="ghniVI8SRtHAH0aED-Tp-18" target="InJDaDbi0Jno1Hsyv-po-18" edge="1">
          <mxGeometry relative="1" as="geometry">
            <mxPoint x="590" y="130" as="sourcePoint" />
            <mxPoint x="750" y="130" as="targetPoint" />
          </mxGeometry>
        </mxCell>
        <mxCell id="InJDaDbi0Jno1Hsyv-po-22" value="N" style="resizable=0;html=1;whiteSpace=wrap;align=right;verticalAlign=bottom;" parent="InJDaDbi0Jno1Hsyv-po-21" connectable="0" vertex="1">
          <mxGeometry x="1" relative="1" as="geometry" />
        </mxCell>
        <mxCell id="InJDaDbi0Jno1Hsyv-po-23" value="" style="endArrow=none;html=1;rounded=0;entryX=0.5;entryY=1;entryDx=0;entryDy=0;exitX=0.5;exitY=0;exitDx=0;exitDy=0;" parent="1" source="ghniVI8SRtHAH0aED-Tp-18" target="InJDaDbi0Jno1Hsyv-po-16" edge="1">
          <mxGeometry relative="1" as="geometry">
            <mxPoint x="380" y="130" as="sourcePoint" />
            <mxPoint x="540" y="130" as="targetPoint" />
          </mxGeometry>
        </mxCell>
        <mxCell id="InJDaDbi0Jno1Hsyv-po-24" value="" style="endArrow=none;html=1;rounded=0;entryX=0.5;entryY=1;entryDx=0;entryDy=0;exitX=0.354;exitY=0.065;exitDx=0;exitDy=0;exitPerimeter=0;" parent="1" source="ghniVI8SRtHAH0aED-Tp-18" target="InJDaDbi0Jno1Hsyv-po-17" edge="1">
          <mxGeometry relative="1" as="geometry">
            <mxPoint x="380" y="130" as="sourcePoint" />
            <mxPoint x="540" y="130" as="targetPoint" />
          </mxGeometry>
        </mxCell>
        <mxCell id="InJDaDbi0Jno1Hsyv-po-25" value="IDHotel" style="ellipse;whiteSpace=wrap;html=1;align=center;fontStyle=4;" parent="1" vertex="1">
          <mxGeometry x="780" y="-60" width="100" height="40" as="geometry" />
        </mxCell>
        <mxCell id="InJDaDbi0Jno1Hsyv-po-26" value="" style="endArrow=none;html=1;rounded=0;" parent="1" source="InJDaDbi0Jno1Hsyv-po-25" edge="1">
          <mxGeometry relative="1" as="geometry">
            <mxPoint x="380" y="130" as="sourcePoint" />
            <mxPoint x="740" y="30" as="targetPoint" />
          </mxGeometry>
        </mxCell>
        <mxCell id="InJDaDbi0Jno1Hsyv-po-29" value="" style="endArrow=none;html=1;rounded=0;entryX=0.5;entryY=1;entryDx=0;entryDy=0;" parent="1" source="ejgy_zcAvgptHarT8cZN-97" target="ghniVI8SRtHAH0aED-Tp-20" edge="1">
          <mxGeometry relative="1" as="geometry">
            <mxPoint x="430" y="440" as="sourcePoint" />
            <mxPoint x="430" y="390" as="targetPoint" />
          </mxGeometry>
        </mxCell>
        <mxCell id="InJDaDbi0Jno1Hsyv-po-28" value="N" style="text;html=1;align=center;verticalAlign=middle;whiteSpace=wrap;rounded=0;" parent="1" vertex="1">
          <mxGeometry x="370" y="390" width="60" height="30" as="geometry" />
        </mxCell>
        <mxCell id="InJDaDbi0Jno1Hsyv-po-30" value="Apellido" style="ellipse;whiteSpace=wrap;html=1;align=center;" parent="1" vertex="1">
          <mxGeometry x="-290" y="890" width="100" height="40" as="geometry" />
        </mxCell>
        <mxCell id="InJDaDbi0Jno1Hsyv-po-31" value="" style="endArrow=none;html=1;rounded=0;exitX=0.738;exitY=0.87;exitDx=0;exitDy=0;exitPerimeter=0;entryX=0.25;entryY=0;entryDx=0;entryDy=0;" parent="1" source="InJDaDbi0Jno1Hsyv-po-30" target="InJDaDbi0Jno1Hsyv-po-46" edge="1">
          <mxGeometry relative="1" as="geometry">
            <mxPoint x="-10" y="920" as="sourcePoint" />
            <mxPoint x="-149.25531914893622" y="980" as="targetPoint" />
          </mxGeometry>
        </mxCell>
        <mxCell id="InJDaDbi0Jno1Hsyv-po-32" value="Permite" style="shape=rhombus;perimeter=rhombusPerimeter;whiteSpace=wrap;html=1;align=center;" parent="1" vertex="1">
          <mxGeometry x="570" y="260" width="120" height="60" as="geometry" />
        </mxCell>
        <mxCell id="InJDaDbi0Jno1Hsyv-po-33" value="" style="endArrow=none;html=1;rounded=0;entryX=0;entryY=0.5;entryDx=0;entryDy=0;exitX=1;exitY=0.75;exitDx=0;exitDy=0;" parent="1" source="ghniVI8SRtHAH0aED-Tp-1" target="InJDaDbi0Jno1Hsyv-po-32" edge="1">
          <mxGeometry relative="1" as="geometry">
            <mxPoint x="560" y="300" as="sourcePoint" />
            <mxPoint x="720" y="300" as="targetPoint" />
          </mxGeometry>
        </mxCell>
        <mxCell id="InJDaDbi0Jno1Hsyv-po-34" value="N" style="resizable=0;html=1;whiteSpace=wrap;align=right;verticalAlign=bottom;" parent="InJDaDbi0Jno1Hsyv-po-33" connectable="0" vertex="1">
          <mxGeometry x="1" relative="1" as="geometry" />
        </mxCell>
        <mxCell id="InJDaDbi0Jno1Hsyv-po-36" value="" style="endArrow=none;html=1;rounded=0;entryX=1;entryY=0.5;entryDx=0;entryDy=0;exitX=0;exitY=0.5;exitDx=0;exitDy=0;" parent="1" source="ghniVI8SRtHAH0aED-Tp-19" target="InJDaDbi0Jno1Hsyv-po-32" edge="1">
          <mxGeometry relative="1" as="geometry">
            <mxPoint x="560" y="300" as="sourcePoint" />
            <mxPoint x="720" y="300" as="targetPoint" />
          </mxGeometry>
        </mxCell>
        <mxCell id="InJDaDbi0Jno1Hsyv-po-37" value="1" style="resizable=0;html=1;whiteSpace=wrap;align=right;verticalAlign=bottom;" parent="InJDaDbi0Jno1Hsyv-po-36" connectable="0" vertex="1">
          <mxGeometry x="1" relative="1" as="geometry" />
        </mxCell>
        <mxCell id="InJDaDbi0Jno1Hsyv-po-39" value="" style="endArrow=none;html=1;rounded=0;entryX=0.6;entryY=1;entryDx=0;entryDy=0;exitX=0.25;exitY=0;exitDx=0;exitDy=0;entryPerimeter=0;" parent="1" source="ghniVI8SRtHAH0aED-Tp-19" target="InJDaDbi0Jno1Hsyv-po-45" edge="1">
          <mxGeometry relative="1" as="geometry">
            <mxPoint x="560" y="300" as="sourcePoint" />
            <mxPoint x="760" y="220" as="targetPoint" />
          </mxGeometry>
        </mxCell>
        <mxCell id="InJDaDbi0Jno1Hsyv-po-40" value="Precio" style="ellipse;whiteSpace=wrap;html=1;align=center;" parent="1" vertex="1">
          <mxGeometry x="870" y="190" width="100" height="40" as="geometry" />
        </mxCell>
        <mxCell id="InJDaDbi0Jno1Hsyv-po-41" value="" style="endArrow=none;html=1;rounded=0;entryX=0;entryY=1;entryDx=0;entryDy=0;exitX=0.63;exitY=0.035;exitDx=0;exitDy=0;exitPerimeter=0;" parent="1" source="ghniVI8SRtHAH0aED-Tp-19" target="InJDaDbi0Jno1Hsyv-po-40" edge="1">
          <mxGeometry relative="1" as="geometry">
            <mxPoint x="838" y="250" as="sourcePoint" />
            <mxPoint x="720" y="300" as="targetPoint" />
          </mxGeometry>
        </mxCell>
        <mxCell id="InJDaDbi0Jno1Hsyv-po-42" value="IDComida" style="ellipse;whiteSpace=wrap;html=1;align=center;fontStyle=4;" parent="1" vertex="1">
          <mxGeometry x="940" y="280" width="100" height="40" as="geometry" />
        </mxCell>
        <mxCell id="InJDaDbi0Jno1Hsyv-po-43" value="" style="endArrow=none;html=1;rounded=0;entryX=1;entryY=0.5;entryDx=0;entryDy=0;exitX=0;exitY=0.5;exitDx=0;exitDy=0;" parent="1" source="InJDaDbi0Jno1Hsyv-po-42" target="ghniVI8SRtHAH0aED-Tp-19" edge="1">
          <mxGeometry relative="1" as="geometry">
            <mxPoint x="560" y="300" as="sourcePoint" />
            <mxPoint x="760" y="300" as="targetPoint" />
          </mxGeometry>
        </mxCell>
        <mxCell id="InJDaDbi0Jno1Hsyv-po-45" value="Descripcion" style="ellipse;whiteSpace=wrap;html=1;align=center;" parent="1" vertex="1">
          <mxGeometry x="760" y="190" width="100" height="40" as="geometry" />
        </mxCell>
        <mxCell id="InJDaDbi0Jno1Hsyv-po-46" value="Pasajero" style="shape=ext;margin=3;double=1;whiteSpace=wrap;html=1;align=center;" parent="1" vertex="1">
          <mxGeometry x="-165" y="980" width="100" height="40" as="geometry" />
        </mxCell>
        <mxCell id="InJDaDbi0Jno1Hsyv-po-47" value="Es Armado Con" style="shape=rhombus;double=1;perimeter=rhombusPerimeter;whiteSpace=wrap;html=1;align=center;" parent="1" vertex="1">
          <mxGeometry x="-175" y="720" width="120" height="60" as="geometry" />
        </mxCell>
        <mxCell id="InJDaDbi0Jno1Hsyv-po-50" value="FechaRegreso" style="ellipse;whiteSpace=wrap;html=1;align=center;" parent="1" vertex="1">
          <mxGeometry x="-370" y="460" width="100" height="40" as="geometry" />
        </mxCell>
        <mxCell id="InJDaDbi0Jno1Hsyv-po-53" value="Duración" style="ellipse;whiteSpace=wrap;html=1;align=center;" parent="1" vertex="1">
          <mxGeometry x="-80" y="160" width="100" height="40" as="geometry" />
        </mxCell>
        <mxCell id="InJDaDbi0Jno1Hsyv-po-54" value="" style="endArrow=none;html=1;rounded=0;exitX=1;exitY=1;exitDx=0;exitDy=0;entryX=0.25;entryY=0;entryDx=0;entryDy=0;" parent="1" source="InJDaDbi0Jno1Hsyv-po-53" target="ejgy_zcAvgptHarT8cZN-35" edge="1">
          <mxGeometry relative="1" as="geometry">
            <mxPoint x="110" y="200" as="sourcePoint" />
            <mxPoint x="270" y="200" as="targetPoint" />
          </mxGeometry>
        </mxCell>
        <mxCell id="thYFKnaeOKPAML_VuoZP-1" value="FechaPartida" style="ellipse;whiteSpace=wrap;html=1;align=center;" vertex="1" parent="1">
          <mxGeometry x="-360" y="520" width="100" height="40" as="geometry" />
        </mxCell>
        <mxCell id="thYFKnaeOKPAML_VuoZP-2" value="" style="endArrow=none;html=1;rounded=0;entryX=0;entryY=0.75;entryDx=0;entryDy=0;exitX=1;exitY=0.5;exitDx=0;exitDy=0;" edge="1" parent="1" source="thYFKnaeOKPAML_VuoZP-1" target="ejgy_zcAvgptHarT8cZN-51">
          <mxGeometry relative="1" as="geometry">
            <mxPoint x="-370" y="650" as="sourcePoint" />
            <mxPoint x="-210" y="650" as="targetPoint" />
          </mxGeometry>
        </mxCell>
        <mxCell id="thYFKnaeOKPAML_VuoZP-3" value="" style="endArrow=none;html=1;rounded=0;entryX=0;entryY=0.5;entryDx=0;entryDy=0;exitX=1;exitY=0.5;exitDx=0;exitDy=0;" edge="1" parent="1" source="InJDaDbi0Jno1Hsyv-po-50" target="ejgy_zcAvgptHarT8cZN-51">
          <mxGeometry relative="1" as="geometry">
            <mxPoint x="-370" y="650" as="sourcePoint" />
            <mxPoint x="-210" y="650" as="targetPoint" />
          </mxGeometry>
        </mxCell>
      </root>
    </mxGraphModel>
  </diagram>
</mxfile>
